<svg width="80" height="41" viewBox="0 0 80 41" fill="none" xmlns="http://www.w3.org/2000/svg">
<path fill-rule="evenodd" clip-rule="evenodd" d="M79.8227 19.1962C79.9766 19.4468 79.8982 19.7747 79.6476 19.9285C75.8157 22.2815 71.0177 23.0106 55.0521 20.2978C51.1189 19.6296 48.2583 19.7959 45.9102 20.3083C44.0091 20.7232 42.4401 21.3633 40.8643 22.0062C40.479 22.1634 40.0934 22.3207 39.7024 22.4749C37.7207 23.2567 35.6489 23.9357 32.952 23.9908C30.2609 24.0458 26.9863 23.4792 22.5814 21.8345C11.6424 17.7502 4.40035 19.0717 0.870783 20.7562C0.605385 20.8828 0.287558 20.7704 0.160896 20.505C0.034235 20.2396 0.146704 19.9217 0.412102 19.7951C4.24979 17.9636 11.7979 16.6715 22.9539 20.8369C27.2742 22.4499 30.4117 22.9775 32.9303 22.9261C35.4431 22.8748 37.3783 22.247 39.3116 21.4843C39.6815 21.3384 40.0531 21.1866 40.4296 21.0329C42.0126 20.3865 43.6834 19.7043 45.6831 19.2679C48.1763 18.7237 51.1753 18.5589 55.2305 19.248C71.2182 21.9645 75.6359 21.1423 79.0903 19.021C79.3409 18.8672 79.6688 18.9456 79.8227 19.1962Z" fill="#637589"/>
<path fill-rule="evenodd" clip-rule="evenodd" d="M36.5407 15.0112C37.0277 15.1813 37.3903 15.5368 37.5983 16.0239C37.9364 16.8156 37.7086 17.5769 37.3711 18.143C37.0351 18.7067 36.55 19.1539 36.1988 19.4018C35.9586 19.5714 35.6263 19.5141 35.4567 19.2739C35.2871 19.0336 35.3444 18.7014 35.5846 18.5318C35.8442 18.3485 36.2136 18.005 36.4564 17.5977C36.6977 17.1928 36.773 16.8028 36.619 16.4421C36.5194 16.2089 36.3726 16.0805 36.1895 16.0166C35.9911 15.9472 35.6954 15.936 35.2898 16.0551C34.4719 16.2954 33.3626 17.0228 32.1322 18.3739C30.6616 19.9889 30.5266 21.1089 30.708 21.7507C30.9 22.4298 31.4774 22.7489 31.7705 22.7666C31.8012 22.7684 31.8317 22.7729 31.8616 22.78C32.2343 22.8686 34.8614 23.119 38.6346 21.747C38.9109 21.6465 39.2164 21.789 39.3169 22.0654C39.4174 22.3418 39.2749 22.6473 38.9985 22.7478C35.1559 24.1451 32.3553 23.9701 31.6605 23.8261C30.9125 23.7581 29.9892 23.1229 29.6832 22.0403C29.3604 20.8982 29.7499 19.4083 31.3448 17.6569C32.6394 16.2353 33.9076 15.3512 34.9897 15.0334C35.5342 14.8734 36.0691 14.8465 36.5407 15.0112Z" fill="#637589"/>
<path fill-rule="evenodd" clip-rule="evenodd" d="M45.0202 14.0709C45.2784 14.2078 45.378 14.5271 45.2435 14.7864C44.1778 16.8422 43.2076 18.8049 42.3402 20.6069C43.0489 20.1677 43.7068 19.8218 44.2522 19.64C44.5312 19.547 44.8327 19.6978 44.9257 19.9767C45.0187 20.2557 44.868 20.5573 44.589 20.6503C43.8172 20.9075 42.6844 21.6061 41.4415 22.492C41.1072 23.1997 40.7917 23.8744 40.4955 24.5112C40.2138 25.1168 39.9487 25.6898 39.7011 26.2251C38.8552 28.054 38.2129 29.4426 37.8051 30.1859C37.299 31.1081 36.5136 32.1806 35.6875 32.8426C35.2793 33.1697 34.8025 33.4444 34.3019 33.4922C33.7481 33.5451 33.2494 33.3123 32.8895 32.8025C32.0593 31.6265 32.4278 30.1311 33.0662 28.903C33.7223 27.6409 34.7666 26.4463 35.6741 25.6901L35.6773 25.6874C36.7268 24.8128 38.3113 23.4924 39.8983 22.3022C40.13 22.1283 40.3635 21.956 40.5967 21.7873C40.5985 21.7836 40.6003 21.7798 40.6021 21.7761C39.8836 22.2995 39.0197 22.7402 37.9345 23.1019C37.6555 23.1949 37.354 23.0441 37.261 22.7652C37.168 22.4862 37.3188 22.1846 37.5978 22.0916C39.5928 21.4266 40.6986 20.5004 41.5826 19.2633C42.0341 18.6313 42.4323 17.9114 42.8619 17.079C42.9975 16.8163 43.1368 16.5411 43.2818 16.2549C43.5905 15.6451 43.9247 14.985 44.3027 14.2877C44.4419 14.0308 44.7621 13.9341 45.0202 14.0709ZM39.6293 23.8486C38.3845 24.8177 37.2033 25.802 36.3558 26.5082C35.5405 27.1876 34.5929 28.2751 34.0111 29.3942C33.4117 30.5473 33.2964 31.5322 33.7595 32.1883C33.917 32.4113 34.057 32.4458 34.2007 32.4321C34.3977 32.4133 34.6772 32.2875 35.0215 32.0116C35.7003 31.4676 36.4045 30.5245 36.8715 29.6735C37.2601 28.9654 37.8786 27.6282 38.7187 25.8122C38.9694 25.2701 39.2399 24.6854 39.5299 24.062C39.5628 23.9913 39.5959 23.9202 39.6293 23.8486Z" fill="#637589"/>
<path d="M47.2636 11.4327C47.2404 11.8188 46.9085 12.1131 46.5224 12.0899C46.1362 12.0666 45.842 11.7348 45.8652 11.3486C45.8884 10.9625 46.2203 10.6682 46.6064 10.6914C46.9926 10.7147 47.2868 11.0465 47.2636 11.4327Z" fill="#637589"/>
<path fill-rule="evenodd" clip-rule="evenodd" d="M39.4334 1.06494C30.445 1.06494 22.8904 7.29368 20.7811 15.7193C20.7096 16.0045 20.4205 16.1779 20.1352 16.1065C19.8499 16.0351 19.6766 15.7459 19.748 15.4606C21.9716 6.57897 29.9384 0 39.4334 0C48.9284 0 56.8951 6.57897 59.1187 15.4606C59.1901 15.7459 59.0168 16.0351 58.7315 16.1065C58.4462 16.1779 58.1571 16.0045 58.0857 15.7193C55.9763 7.29368 48.4217 1.06494 39.4334 1.06494ZM58.7315 24.8935C59.0168 24.9649 59.1901 25.2541 59.1187 25.5394C56.8951 34.421 48.9284 41 39.4334 41C29.9384 41 21.9716 34.421 19.748 25.5394C19.6766 25.2541 19.8499 24.9649 20.1352 24.8935C20.4205 24.8221 20.7096 24.9955 20.7811 25.2807C22.8904 33.7063 30.445 39.9351 39.4334 39.9351C48.4217 39.9351 55.9763 33.7063 58.0857 25.2807C58.1571 24.9955 58.4462 24.8221 58.7315 24.8935Z" fill="#637589"/>
</svg>
